<svg width="22" height="20" viewBox="0 0 22 20" fill="none" xmlns="http://www.w3.org/2000/svg">
<path d="M21.4 3.2C21.32 3.1 21.2 3.04 21.08 3.04H4.54L4.1 0.799996C4.06 0.619996 3.9 0.479996 3.7 0.479996H0.9C0.68 0.479996 0.5 0.659996 0.5 0.879996C0.5 1.1 0.68 1.28 0.9 1.28H3.36L5.48 12.22C5.52 12.32 6.26 14.42 8.12 14.42H18.32C18.54 14.42 18.72 14.24 18.72 14.02C18.72 13.8 18.54 13.62 18.32 13.62H8.12C7.38 13.62 6.88 13.08 6.58 12.62L19.4 10.82C19.56 10.8 19.7 10.68 19.74 10.52L21.46 3.54C21.5 3.42 21.48 3.3 21.4 3.2ZM19.04 10.08L6.24 11.88L4.7 3.86H20.58L19.04 10.08Z" fill="#010202"/>
<path d="M8.12 15.3C6.96 15.3 6 16.24 6 17.42C6 18.6 6.94 19.54 8.12 19.54C9.3 19.54 10.24 18.6 10.24 17.42C10.24 16.24 9.28 15.3 8.12 15.3ZM8.12 18.72C7.4 18.72 6.8 18.14 6.8 17.4C6.8 16.66 7.38 16.08 8.12 16.08C8.84 16.08 9.44 16.66 9.44 17.4C9.44 18.14 8.84 18.72 8.12 18.72Z" fill="#010202"/>
<path d="M16.8 15.3C15.64 15.3 14.68 16.24 14.68 17.42C14.68 18.6 15.62 19.54 16.8 19.54C17.98 19.54 18.92 18.6 18.92 17.42C18.92 16.24 17.96 15.3 16.8 15.3ZM16.8 18.72C16.08 18.72 15.48 18.14 15.48 17.4C15.48 16.66 16.06 16.08 16.8 16.08C17.52 16.08 18.12 16.66 18.12 17.4C18.12 18.14 17.52 18.72 16.8 18.72Z" fill="#010202"/>
</svg>
